<?xml version="1.0" encoding="utf-8"?><!-- Svg Vector Icons : http://www.onlinewebfonts.com/icon -->
<!DOCTYPE svg PUBLIC "-//W3C//DTD SVG 1.1//EN" "http://www.w3.org/Graphics/SVG/1.1/DTD/svg11.dtd">
<svg fill="red" version="1.1" xmlns="http://www.w3.org/2000/svg"
    xmlns:xlink="http://www.w3.org/1999/xlink" x="0px" y="0px" viewBox="0 0 1000 1000"
    enable-background="new 0 0 1000 1000" xml:space="preserve">
<metadata> Svg Vector Icons : http://www.onlinewebfonts.com/icon </metadata>
    <g><g transform="translate(0.000000,511.000000) scale(0.100000,-0.100000)"><path d="M5562.8,4980.5c-209-74.6-392.4-245.2-488.3-452.1c-49.1-104.5-57.6-149.3-57.6-324.1c0-174.9,8.5-219.6,57.6-324.1c74.6-162.1,232.4-326.3,390.2-407.3c119.4-64,142.9-68.2,351.8-68.2c211.1,0,232.4,4.3,366.8,70.4c324.1,159.9,511.8,518.2,447.8,861.5c-51.2,270.8-221.8,494.7-469.1,609.8C6008.4,5018.8,5714.2,5035.9,5562.8,4980.5z"/><path
        d="M1771.4,3897.2c-221.8-72.5-413.7-243.1-513.9-456.3c-51.2-106.6-57.6-149.3-57.6-334.8c0-191.9,6.4-226,61.8-341.2c198.3-403,693-582.1,1087.5-392.4c74.6,34.1,78.9,36.2,34.1,4.3c-639.7-460.6-1036.3-1087.5-1162.1-1838.1c-44.8-262.3-34.1-731.4,19.2-978.8c110.9-511.8,360.4-980.9,710.1-1341.3C2775.8-2630,4046.6-2856,5102.2-2344.2C5880.5-1964.7,6428.5-1246,6599.1-384.6c49,253.8,49,742.1,0,989.4c-108.8,548-345.4,1002.2-722.9,1394.6c-821,850.8-2070.5,1081.1-3128.2,573.6L2505,2455.7l87.4,93.8c381.7,413.7,262.3,1061.9-241,1302.9c-104.5,49-162.1,61.8-309.2,68.2C1929.2,3924.9,1826.9,3916.4,1771.4,3897.2z" /><path
        d="M7313.4,3370.5c-251.6-49-477.7-223.9-592.8-456.3c-55.4-115.1-61.8-149.3-61.8-341.2c0-198.3,4.3-223.9,68.2-354c83.2-170.6,236.7-319.9,407.3-398.8c106.6-51.2,147.1-57.6,334.8-57.6c191.9,2.1,226,8.5,341.2,64c328.4,157.8,520.3,524.6,456.3,874.3c-61.9,341.2-326.3,605.6-669.6,669.6C7456.3,3396.1,7443.5,3396.1,7313.4,3370.5z" /><path
        d="M7548,1169.9c-110.9-34.1-272.9-191.9-317.7-309.2c-44.8-119.4-46.9-304.9-2.1-411.6c46.9-106.6,157.8-226,260.2-281.5c66.1-34.1,125.8-46.9,249.5-46.9c142.9,0,172.7,6.4,264.4,64c319.9,198.3,373.2,607.7,113,857.2C7970.2,1180.6,7742,1233.9,7548,1169.9z" /><path
        d="M278.8,641.1c-177-51.2-238.8-287.9-110.9-432.9c151.4-172.7,430.7-93.8,460.6,130.1C656.2,547.3,481.3,700.8,278.8,641.1z" /><path
        d="M1069.9-2084.1C575.2-2207.8,485.6-2856,931.3-3097c209-110.9,454.2-76.8,629,89.6c115.1,110.9,162.1,221.8,162.1,388.1c0,162.1-44.8,275.1-151.4,381.7C1447.3-2113.9,1225.5-2045.7,1069.9-2084.1z" /><path
        d="M2573.2-3231.3c-435-221.8-371-861.5,100.2-1000.1c215.4-61.8,403-4.3,556.5,170.6c309.2,349.7,61.8,884.9-411.6,887.1C2720.3-3173.7,2662.7-3186.5,2573.2-3231.3z" /><path
        d="M4782.3-3214.2c-281.5-127.9-400.9-477.6-253.8-748.4c209-388.1,735.7-392.4,953.2-4.3c74.6,136.5,87.4,324.1,27.7,462.7c-46.9,110.9-170.6,238.8-279.4,290C5117.1-3160.9,4897.5-3160.9,4782.3-3214.2z" /><path
        d="M4598.9-4293.2c-106.6-57.6-159.9-187.6-125.8-311.3c32-117.3,108.8-174.9,243.1-185.5c106.6-8.5,119.4-4.3,194,64c106.6,96,123.7,226,49,336.9c-27.7,40.5-74.6,85.3-102.3,100.2C4786.6-4252.7,4667.2-4254.8,4598.9-4293.2z" /></g></g>
</svg>